<svg xmlns="http://www.w3.org/2000/svg" xmlns:xlink="http://www.w3.org/1999/xlink" width="1493.425" height="1041.89" viewBox="0 0 1493.425 1041.89">
  <defs>
    <linearGradient id="linear-gradient" y1="0.5" x2="1" y2="0.5" gradientUnits="objectBoundingBox">
      <stop offset="0" stop-color="#00d"/>
      <stop offset="0.452" stop-color="#c26cf7"/>
      <stop offset="1" stop-color="#37d6ae"/>
    </linearGradient>
  </defs>
  <path id="Ligne10" d="M2215.5,4.969c-66.5-.483-129.437,30.327-183.211,67.132a551.863,551.863,0,0,0-131.036,126.3c-39.109,52.579-64.83,111.432-87.153,172.687-22.542,61.85-45.7,122.165-83.5,176.566-69.533,100.072-171.932,170.71-288.1,205.692-127.687,38.449-262.452,40.914-391.574,72.548-108,26.462-218.719,74.282-288.658,164.3a343.85,343.85,0,0,0-23.906,34.9c-9.659,16.2,15.6,30.914,25.242,14.755,57.447-96.336,162.413-148.99,267.046-178.4,124.148-34.893,254.448-38.285,379.507-69,61.968-15.219,122.384-37.566,177.029-70.831a556.7,556.7,0,0,0,132.77-112.788c39.489-46.062,70.382-97.682,93.57-153.677,26-62.792,44.067-128.75,77.818-188.146a518.46,518.46,0,0,1,112.772-136.668c46.164-39.71,101.828-75.331,161.408-90.171A199.534,199.534,0,0,1,2215.5,34.2c18.814.136,18.835-29.1,0-29.233Z" transform="translate(-736.198 -4.963)" fill="url(#linear-gradient)"/>
</svg>
